<mxfile host="app.diagrams.net" modified="2023-09-05T08:04:04.664Z" agent="Mozilla/5.0 (Windows NT 10.0; Win64; x64) AppleWebKit/537.36 (KHTML, like Gecko) Chrome/116.0.0.0 Safari/537.36" etag="XuGaLPDOFjN14L9C_Kyn" version="21.6.8" type="github">
  <diagram id="C5RBs43oDa-KdzZeNtuy" name="Page-1">
    <mxGraphModel dx="1434" dy="750" grid="1" gridSize="10" guides="1" tooltips="1" connect="1" arrows="1" fold="1" page="1" pageScale="1" pageWidth="827" pageHeight="1169" math="0" shadow="0">
      <root>
        <mxCell id="WIyWlLk6GJQsqaUBKTNV-0" />
        <mxCell id="WIyWlLk6GJQsqaUBKTNV-1" parent="WIyWlLk6GJQsqaUBKTNV-0" />
        <mxCell id="QZ2JmRGXnyw_BTF7I-wi-9" value="&lt;p style=&quot;margin:0px;margin-top:6px;text-align:center;&quot;&gt;&lt;b&gt;App Component&lt;/b&gt;&lt;/p&gt;&lt;hr&gt;&lt;p style=&quot;margin:0px;margin-left:8px;&quot;&gt;&lt;br&gt;&lt;/p&gt;" style="align=left;overflow=fill;html=1;dropTarget=0;whiteSpace=wrap;" vertex="1" parent="WIyWlLk6GJQsqaUBKTNV-1">
          <mxGeometry x="150" y="160" width="380" height="290" as="geometry" />
        </mxCell>
        <mxCell id="QZ2JmRGXnyw_BTF7I-wi-10" value="" style="shape=component;jettyWidth=8;jettyHeight=4;" vertex="1" parent="QZ2JmRGXnyw_BTF7I-wi-9">
          <mxGeometry x="1" width="20" height="20" relative="1" as="geometry">
            <mxPoint x="-24" y="4" as="offset" />
          </mxGeometry>
        </mxCell>
        <mxCell id="QZ2JmRGXnyw_BTF7I-wi-5" value="«interface»&lt;br&gt;&lt;b&gt;Item&lt;/b&gt;" style="html=1;whiteSpace=wrap;" vertex="1" parent="WIyWlLk6GJQsqaUBKTNV-1">
          <mxGeometry x="580" y="230" width="110" height="50" as="geometry" />
        </mxCell>
        <mxCell id="QZ2JmRGXnyw_BTF7I-wi-16" style="edgeStyle=orthogonalEdgeStyle;rounded=0;orthogonalLoop=1;jettySize=auto;html=1;exitX=1;exitY=0.25;exitDx=0;exitDy=0;entryX=0;entryY=0.5;entryDx=0;entryDy=0;endArrow=none;endFill=0;" edge="1" parent="WIyWlLk6GJQsqaUBKTNV-1" source="QZ2JmRGXnyw_BTF7I-wi-7" target="QZ2JmRGXnyw_BTF7I-wi-5">
          <mxGeometry relative="1" as="geometry" />
        </mxCell>
        <mxCell id="QZ2JmRGXnyw_BTF7I-wi-7" value="&lt;p style=&quot;margin:0px;margin-top:6px;text-align:center;&quot;&gt;&lt;b&gt;Receipt&lt;/b&gt;&lt;/p&gt;&lt;hr&gt;&lt;p style=&quot;margin:0px;margin-left:8px;&quot;&gt;+ ItemList: Item[]&lt;br&gt;+ taxedItemList: Item[]&lt;/p&gt;&lt;p style=&quot;margin:0px;margin-left:8px;&quot;&gt;+ salesTaxes: number&lt;/p&gt;&lt;p style=&quot;margin:0px;margin-left:8px;&quot;&gt;+ totalPrice:number&lt;/p&gt;&lt;p style=&quot;margin:0px;margin-left:8px;&quot;&gt;+&amp;nbsp;calculateTax()&lt;/p&gt;&lt;p style=&quot;margin:0px;margin-left:8px;&quot;&gt;+ roundUp()&lt;/p&gt;" style="align=left;overflow=fill;html=1;dropTarget=0;whiteSpace=wrap;" vertex="1" parent="WIyWlLk6GJQsqaUBKTNV-1">
          <mxGeometry x="170" y="210" width="330" height="210" as="geometry" />
        </mxCell>
        <mxCell id="QZ2JmRGXnyw_BTF7I-wi-8" value="" style="shape=component;jettyWidth=8;jettyHeight=4;" vertex="1" parent="QZ2JmRGXnyw_BTF7I-wi-7">
          <mxGeometry x="1" width="20" height="20" relative="1" as="geometry">
            <mxPoint x="-24" y="4" as="offset" />
          </mxGeometry>
        </mxCell>
        <mxCell id="QZ2JmRGXnyw_BTF7I-wi-15" style="edgeStyle=orthogonalEdgeStyle;rounded=0;orthogonalLoop=1;jettySize=auto;html=1;entryX=0;entryY=0.5;entryDx=0;entryDy=0;endArrow=none;endFill=0;" edge="1" parent="WIyWlLk6GJQsqaUBKTNV-1" source="QZ2JmRGXnyw_BTF7I-wi-11" target="QZ2JmRGXnyw_BTF7I-wi-13">
          <mxGeometry relative="1" as="geometry" />
        </mxCell>
        <mxCell id="QZ2JmRGXnyw_BTF7I-wi-11" value="&lt;p style=&quot;margin:0px;margin-top:6px;text-align:center;&quot;&gt;&lt;b&gt;AddItem&lt;/b&gt;&lt;/p&gt;&lt;hr&gt;&lt;p style=&quot;margin:0px;margin-left:8px;&quot;&gt;+ newItem: EventEmitter&amp;lt;Item&amp;gt;&lt;br&gt;+ addItem()&lt;/p&gt;" style="align=left;overflow=fill;html=1;dropTarget=0;whiteSpace=wrap;" vertex="1" parent="WIyWlLk6GJQsqaUBKTNV-1">
          <mxGeometry x="310" y="320" width="180" height="90" as="geometry" />
        </mxCell>
        <mxCell id="QZ2JmRGXnyw_BTF7I-wi-12" value="" style="shape=component;jettyWidth=8;jettyHeight=4;" vertex="1" parent="QZ2JmRGXnyw_BTF7I-wi-11">
          <mxGeometry x="1" width="20" height="20" relative="1" as="geometry">
            <mxPoint x="-24" y="4" as="offset" />
          </mxGeometry>
        </mxCell>
        <mxCell id="QZ2JmRGXnyw_BTF7I-wi-13" value="«enum»&lt;br&gt;&lt;b&gt;category&lt;/b&gt;" style="html=1;whiteSpace=wrap;" vertex="1" parent="WIyWlLk6GJQsqaUBKTNV-1">
          <mxGeometry x="580" y="340" width="110" height="50" as="geometry" />
        </mxCell>
      </root>
    </mxGraphModel>
  </diagram>
</mxfile>
